<svg width="1920" height="3414" viewBox="0 0 1920 3414" fill="none" xmlns="http://www.w3.org/2000/svg">
<g opacity="1.0" clip-path="url(#clip0)">
<path d="M1530.49 837.915C1512.34 819.194 1514.64 810.551 1519.94 804.558C1522.92 801.187 1529.88 793.321 1557.45 809.691C1579.49 822.505 1636.24 864.003 1679.38 897.481C1680.13 898.144 1680.18 898.85 1679.51 899.599C1678.23 901.803 1676.25 904.05 1674.22 905.592C1673.51 905.635 1673.18 906.01 1672.47 906.053C1659.73 906.128 1640.12 904.146 1625.67 905.388C1618.99 906.153 1611.05 903.807 1605.19 900.625C1600.78 898.062 1594.88 894.175 1588.51 888.544C1569.45 872.359 1541.07 848.6 1530.49 837.915ZM1549.24 923.901C1551.25 916.338 1558.12 907.061 1567.67 906.828C1576.85 906.264 1586.53 908.148 1594.88 911.531C1597.42 912.438 1600.41 915.088 1599.22 918.703C1595.39 931.336 1597.28 939.013 1604.19 947.798C1609.61 955.258 1618.1 960.758 1628.74 966.834C1638.97 971.872 1652.11 978.149 1660.88 982.569C1664.54 984.469 1665.42 987.249 1664.18 990.159C1661.62 994.567 1657.98 998.688 1650.54 998.79C1643.11 998.893 1633.76 996.634 1624 993.338C1609.16 988.228 1595.56 980.208 1581.13 970.115C1576.34 967.221 1565.9 958.653 1557.44 947.838C1552.44 941.415 1546.56 932.212 1549.24 923.901ZM1539.93 985.753C1536.46 975.34 1540.51 966.236 1545.39 959.205C1546.38 958.082 1547.79 957.995 1548.92 958.988C1552.75 963.712 1556.87 967.355 1560.61 970.667C1579.72 987.558 1599.89 998.716 1619.04 1004.98C1628.81 1008.27 1641.03 1011.06 1650.75 1013.65C1655.4 1014.43 1657.74 1017.83 1658.28 1020.98C1658.21 1025.59 1656.69 1029.58 1653.38 1033.33C1647.41 1040.07 1637.53 1040.68 1620 1037.86C1597.86 1034.97 1572.67 1022.71 1561.06 1012.44C1551.69 1004.16 1543.36 995.46 1539.93 985.753ZM1533.29 1033.27C1531.03 1025.26 1532.67 1017.37 1536.8 1009.68C1537.46 1008.93 1538.54 1009.22 1539.29 1009.88C1543.08 1013.9 1547.62 1018.58 1552.11 1022.55C1565.6 1034.47 1598.36 1048.76 1623.36 1052.18C1630.51 1053.15 1637.45 1056.62 1633.78 1066.06C1632.59 1069.68 1627.66 1076 1617.45 1076.98C1593.16 1079.54 1562.7 1067.95 1547.34 1054.37C1543.97 1051.39 1536.06 1043.73 1533.29 1033.27ZM1844.63 1096.31C1846.5 1097.97 1847.38 1100.75 1845.73 1102.62L1762.6 1196.64C1760.61 1198.89 1757.04 1198.4 1754.79 1196.41L1733.84 1172.55C1732.34 1171.23 1730.47 1169.57 1728.31 1169C1686.46 1156.69 1651.88 1141.46 1620.56 1121.78C1603.59 1110.78 1589.02 1098.57 1576.57 1086.22C1576.2 1085.89 1576.82 1084.44 1577.57 1085.1C1591.99 1089.17 1608.15 1092.79 1623.59 1090.42C1634.09 1088.36 1645.98 1080.19 1655.92 1068.95C1665.86 1057.71 1682.49 1051.73 1696.52 1066.81C1713.6 1085.24 1727.04 1096.46 1744.21 1104.97C1748.24 1107.2 1753.56 1107.23 1755.88 1104.6C1758.19 1101.98 1755.77 1097.17 1753.15 1094.85C1738.17 1081.61 1724.87 1061.17 1716.05 1038.69C1707.23 1016.21 1704.73 998.647 1705.62 990.091C1706.15 987.225 1703.82 983.826 1700.95 983.294C1695.18 981.524 1661.34 966.955 1634.36 954.445C1617.94 946.599 1608.07 935.87 1610.66 926.147C1611.48 922.2 1616.62 919.405 1629.98 917.875C1647.21 915.753 1672.17 918.469 1683.6 919.893C1703.62 922.913 1716.38 928.858 1735.11 945.418C1756.84 964.627 1790.57 1017.81 1817.88 1076C1818.71 1078.07 1820.59 1079.73 1822.08 1081.05L1844.63 1096.31ZM1753.84 1215.6C1755.72 1217.26 1758.25 1218.16 1761.03 1217.28C1762.07 1216.87 1763.44 1216.07 1764.1 1215.32L1863.79 1102.58C1866.44 1099.58 1866.88 1095.3 1862.81 1092.36L1832.11 1071.23C1830.65 1070.61 1829.86 1069.24 1829.07 1067.87C1797.75 1002.14 1764.15 951.072 1733.81 924.245C1700.85 895.1 1597.25 817.517 1564.52 797.922C1548.34 788.289 1525.39 778.011 1509.83 795.616C1500.22 806.479 1497.36 823.303 1520.8 847.366C1530.25 857.057 1551.56 875.23 1569.87 890.753C1570.99 891.746 1570.75 893.532 1569.34 893.619C1568.26 893.331 1567.55 893.375 1566.85 893.418C1552.73 894.286 1539.97 905.697 1536.27 920.447C1534.22 927.304 1535.02 934.693 1538.37 942.988C1539.16 944.357 1538.54 945.812 1537.55 946.935C1526.04 961.457 1522.34 976.207 1526.74 990.106C1527.58 992.18 1528.37 993.548 1529.21 995.622C1529.58 995.953 1529.29 997.034 1528.96 997.408C1519.44 1009.68 1516.74 1023.31 1520.39 1036.55C1524.08 1050.49 1533.15 1059.85 1538.4 1064.48C1540.65 1066.47 1543.22 1068.08 1545.85 1070.4C1546.55 1070.36 1546.6 1071.06 1546.97 1071.4C1550.6 1078.61 1566.55 1096.05 1578.54 1106.65C1588.65 1115.59 1600.18 1124.45 1613.44 1132.84C1644.06 1152.57 1679.39 1168.46 1718.37 1180.23C1721.99 1181.43 1724.94 1183.37 1727.23 1186.06L1753.84 1215.6Z" fill="#FFFFFF"/>
<path d="M1653.49 310.13L1653.15 309.548L1624.14 326.3L1598.91 303.728L1598.41 304.016L1605.35 337.148L1576.33 353.9L1576.67 354.482L1609.82 357.954L1616.77 391.299L1617.33 391.309L1631.16 360.157L1665.05 363.757L1665.32 363.267L1639.92 340.578L1653.49 310.13Z" fill="#FFFFFF"/>
<path d="M443.447 924.505L442.047 922.08L321.149 991.88L216.044 897.833L213.966 899.033L242.861 1037.08L121.964 1106.88L123.364 1109.31L261.505 1123.77L290.453 1262.71L292.785 1262.75L350.405 1132.95L491.625 1147.95L492.757 1145.91L386.905 1051.37L443.447 924.505Z" fill="#FFFFFF"/>
<path d="M1452.32 221.778L1451.93 221.554L1440.77 240.898L1418.68 236.275L1418.49 236.607L1433.53 253.424L1422.37 272.767L1422.75 272.991L1443.05 263.945L1458.18 280.881L1458.5 280.7L1456.1 258.105L1476.87 248.886L1476.87 248.513L1454.64 243.881L1452.32 221.778Z" fill="#FFFFFF"/>
<path d="M1349.49 1381.91C1331.34 1363.19 1333.64 1354.55 1338.94 1348.56C1341.92 1345.19 1348.88 1337.32 1376.45 1353.69C1398.49 1366.51 1455.24 1408 1498.38 1441.48C1499.13 1442.14 1499.18 1442.85 1498.51 1443.6C1497.23 1445.8 1495.25 1448.05 1493.22 1449.59C1492.51 1449.64 1492.18 1450.01 1491.47 1450.05C1478.73 1450.13 1459.12 1448.15 1444.67 1449.39C1437.99 1450.15 1430.05 1447.81 1424.19 1444.63C1419.78 1442.06 1413.88 1438.17 1407.51 1432.54C1388.45 1416.36 1360.07 1392.6 1349.49 1381.91ZM1368.24 1467.9C1370.25 1460.34 1377.12 1451.06 1386.67 1450.83C1395.85 1450.26 1405.53 1452.15 1413.88 1455.53C1416.42 1456.44 1419.41 1459.09 1418.22 1462.7C1414.39 1475.34 1416.28 1483.01 1423.19 1491.8C1428.61 1499.26 1437.1 1504.76 1447.74 1510.83C1457.97 1515.87 1471.11 1522.15 1479.88 1526.57C1483.54 1528.47 1484.42 1531.25 1483.18 1534.16C1480.62 1538.57 1476.98 1542.69 1469.54 1542.79C1462.11 1542.89 1452.76 1540.63 1443 1537.34C1428.16 1532.23 1414.56 1524.21 1400.13 1514.11C1395.34 1511.22 1384.9 1502.65 1376.44 1491.84C1371.44 1485.42 1365.56 1476.21 1368.24 1467.9ZM1358.93 1529.75C1355.46 1519.34 1359.51 1510.24 1364.39 1503.21C1365.38 1502.08 1366.79 1501.99 1367.92 1502.99C1371.75 1507.71 1375.87 1511.36 1379.61 1514.67C1398.72 1531.56 1418.89 1542.72 1438.04 1548.98C1447.81 1552.27 1460.03 1555.06 1469.75 1557.65C1474.4 1558.43 1476.74 1561.83 1477.28 1564.98C1477.21 1569.59 1475.69 1573.58 1472.38 1577.33C1466.41 1584.07 1456.53 1584.68 1439 1581.86C1416.86 1578.97 1391.67 1566.71 1380.06 1556.44C1370.69 1548.16 1362.36 1539.46 1358.93 1529.75ZM1352.29 1577.27C1350.03 1569.26 1351.67 1561.37 1355.8 1553.68C1356.46 1552.93 1357.54 1553.22 1358.29 1553.88C1362.08 1557.9 1366.62 1562.58 1371.11 1566.55C1384.6 1578.47 1417.36 1592.76 1442.36 1596.18C1449.51 1597.15 1456.45 1600.62 1452.78 1610.06C1451.59 1613.68 1446.66 1620 1436.45 1620.98C1412.16 1623.54 1381.7 1611.95 1366.34 1598.37C1362.97 1595.39 1355.06 1587.73 1352.29 1577.27ZM1663.63 1640.31C1665.5 1641.97 1666.38 1644.75 1664.73 1646.62L1581.6 1740.64C1579.61 1742.89 1576.04 1742.4 1573.79 1740.41L1552.84 1716.55C1551.34 1715.23 1549.47 1713.57 1547.31 1713C1505.46 1700.69 1470.88 1685.46 1439.56 1665.78C1422.59 1654.78 1408.02 1642.57 1395.57 1630.22C1395.2 1629.89 1395.82 1628.44 1396.57 1629.1C1410.99 1633.17 1427.15 1636.79 1442.59 1634.42C1453.09 1632.36 1464.98 1624.19 1474.92 1612.95C1484.86 1601.71 1501.49 1595.73 1515.52 1610.81C1532.6 1629.24 1546.04 1640.46 1563.21 1648.97C1567.24 1651.2 1572.56 1651.23 1574.88 1648.6C1577.19 1645.98 1574.77 1641.17 1572.15 1638.85C1557.17 1625.61 1543.87 1605.17 1535.05 1582.69C1526.23 1560.21 1523.73 1542.65 1524.62 1534.09C1525.15 1531.22 1522.82 1527.83 1519.95 1527.29C1514.18 1525.52 1480.34 1510.96 1453.36 1498.44C1436.94 1490.6 1427.07 1479.87 1429.66 1470.15C1430.48 1466.2 1435.62 1463.4 1448.98 1461.87C1466.21 1459.75 1491.17 1462.47 1502.6 1463.89C1522.62 1466.91 1535.38 1472.86 1554.11 1489.42C1575.84 1508.63 1609.57 1561.81 1636.88 1620C1637.71 1622.07 1639.59 1623.73 1641.08 1625.05L1663.63 1640.31ZM1572.84 1759.6C1574.72 1761.26 1577.25 1762.16 1580.03 1761.28C1581.07 1760.87 1582.44 1760.07 1583.1 1759.32L1682.79 1646.58C1685.44 1643.58 1685.88 1639.3 1681.81 1636.36L1651.11 1615.23C1649.65 1614.61 1648.86 1613.24 1648.07 1611.87C1616.75 1546.14 1583.15 1495.07 1552.81 1468.24C1519.85 1439.1 1416.25 1361.52 1383.52 1341.92C1367.34 1332.29 1344.39 1322.01 1328.83 1339.62C1319.22 1350.48 1316.36 1367.3 1339.8 1391.37C1349.25 1401.06 1370.56 1419.23 1388.87 1434.75C1389.99 1435.75 1389.75 1437.53 1388.34 1437.62C1387.26 1437.33 1386.55 1437.37 1385.85 1437.42C1371.73 1438.29 1358.97 1449.7 1355.27 1464.45C1353.22 1471.3 1354.02 1478.69 1357.37 1486.99C1358.16 1488.36 1357.54 1489.81 1356.55 1490.94C1345.04 1505.46 1341.34 1520.21 1345.74 1534.11C1346.58 1536.18 1347.37 1537.55 1348.21 1539.62C1348.58 1539.95 1348.29 1541.03 1347.96 1541.41C1338.44 1553.68 1335.74 1567.31 1339.39 1580.55C1343.08 1594.49 1352.15 1603.85 1357.4 1608.48C1359.65 1610.47 1362.22 1612.08 1364.85 1614.4C1365.55 1614.36 1365.6 1615.06 1365.97 1615.4C1369.6 1622.61 1385.55 1640.05 1397.54 1650.65C1407.65 1659.59 1419.18 1668.45 1432.44 1676.84C1463.06 1696.57 1498.39 1712.46 1537.37 1724.23C1540.99 1725.43 1543.94 1727.37 1546.23 1730.06L1572.84 1759.6Z" fill="#FFFFFF"/>
<path d="M482.487 2228.13L482.151 2227.55L453.136 2244.3L427.911 2221.73L427.412 2222.02L434.347 2255.15L405.331 2271.9L405.667 2272.48L438.821 2275.95L445.769 2309.3L446.328 2309.31L460.157 2278.16L494.05 2281.76L494.322 2281.27L468.917 2258.58L482.487 2228.13Z" fill="#FFFFFF"/>
<path d="M242.321 1843.78L241.933 1843.55L230.765 1862.9L208.677 1858.27L208.485 1858.61L223.533 1875.42L212.365 1894.77L212.753 1894.99L233.052 1885.94L248.178 1902.88L248.505 1902.7L246.105 1880.1L266.873 1870.89L266.866 1870.51L244.636 1865.88L242.321 1843.78Z" fill="#FFFFFF"/>
<path d="M676.321 1051.78L675.933 1051.55L664.765 1070.9L642.677 1066.27L642.485 1066.61L657.533 1083.42L646.365 1102.77L646.753 1102.99L667.052 1093.94L682.178 1110.88L682.505 1110.7L680.105 1088.1L700.873 1078.89L700.866 1078.51L678.636 1073.88L676.321 1051.78Z" fill="#FFFFFF"/>
<path d="M197.859 705.267L197.794 705.023L185.658 708.275L178.712 697.651L178.503 697.707L177.799 710.381L165.663 713.632L165.729 713.876L177.401 718.351L176.681 731.104L176.883 731.162L184.915 721.22L196.843 725.814L196.989 725.663L189.989 714.979L197.859 705.267Z" fill="#FFFFFF"/>
<g clip-path="url(#clip1)">
<path d="M408.857 310.306C386.918 320.033 362.823 324.025 341.06 321.405C321.622 319.035 302.196 330.005 294.731 348.153C274.422 397.106 207.811 435.564 153.889 427.631C134.974 424.836 117.344 437.586 109.956 455.2C89.3916 503.933 23.1122 542.077 -30.511 534.217C-49.4261 531.422 -67.2381 544.523 -74.7227 562.192C-83.152 581.999 -98.6674 600.631 -118.306 614.785C-125.475 619.904 -127.242 629.497 -123.053 636.752L-105.978 666.326C-101.153 674.684 -89.7647 677.539 -81.442 671.754C-55.0853 653.475 -33.564 630.151 -18.857 603.903C53.7977 604.327 130.909 559.195 165.692 497.354C238.347 497.778 315.458 452.645 350.242 390.804C380.167 390.916 411.522 383.957 439.953 370.604C449.124 366.288 452.346 354.999 447.521 346.641L430.765 317.618C426.619 310.215 417.12 306.637 408.857 310.306V310.306ZM332.498 178.049C310.56 187.776 286.464 191.769 264.702 189.148C245.263 186.778 225.837 197.749 218.373 215.897C198.063 264.85 131.453 303.308 77.5311 295.375C58.616 292.58 40.9862 305.33 33.5978 322.944C13.0333 371.677 -53.246 409.821 -106.869 401.961C-125.784 399.166 -143.596 412.266 -151.081 429.935C-159.51 449.742 -175.026 468.374 -194.664 482.529C-201.833 487.648 -203.6 497.24 -199.411 504.496L-182.337 534.07C-177.511 542.428 -166.123 545.282 -157.8 539.498C-131.444 521.219 -109.922 497.895 -95.2153 471.647C-22.5606 472.071 54.5505 426.938 89.3342 365.097C161.989 365.521 239.1 320.389 273.884 258.548C303.809 258.659 335.164 251.701 363.595 238.347C372.766 234.032 375.988 222.742 371.163 214.385L354.406 185.362C350.26 177.959 340.761 174.381 332.498 178.049V178.049ZM256.14 45.7929C234.149 55.4281 210.106 59.5124 188.344 56.8918C168.905 54.5218 149.479 65.4925 142.014 83.6402C121.705 132.593 55.0943 171.051 1.1728 163.118C-17.7423 160.323 -35.372 173.074 -42.7605 190.687C-63.3249 239.421 -129.604 277.565 -183.227 269.704C-202.143 266.909 -219.955 280.01 -227.439 297.679C-235.869 317.486 -251.384 336.118 -271.022 350.273C-278.191 355.392 -279.958 364.984 -275.769 372.24L-258.695 401.814C-253.869 410.171 -242.481 413.026 -234.159 407.241C-207.802 388.963 -186.281 365.638 -171.574 339.391C-98.9188 339.814 -21.8078 294.682 12.9759 232.841C85.6306 233.265 162.742 188.132 197.525 126.291C227.451 126.403 258.805 119.444 287.237 106.091C296.408 101.776 299.63 90.4861 294.804 82.1282L278.048 53.1053C273.902 45.7022 264.403 42.1244 256.14 45.7929V45.7929Z" fill="#FFFFFF"/>
</g>
<path d="M1386.45 2497.51L1385.05 2495.08L1264.15 2564.88L1159.04 2470.83L1156.97 2472.03L1185.86 2610.08L1064.96 2679.88L1066.36 2682.31L1204.5 2696.77L1233.45 2835.71L1235.79 2835.75L1293.41 2705.95L1434.62 2720.95L1435.76 2718.91L1329.91 2624.37L1386.45 2497.51Z" fill="#FFFFFF"/>
<path d="M1619.32 2624.78L1618.93 2624.55L1607.77 2643.9L1585.68 2639.27L1585.49 2639.61L1600.53 2656.42L1589.37 2675.77L1589.75 2675.99L1610.05 2666.94L1625.18 2683.88L1625.5 2683.7L1623.1 2661.1L1643.87 2651.89L1643.87 2651.51L1621.64 2646.88L1619.32 2624.78Z" fill="#FFFFFF"/>
<path d="M1452.32 3003.78L1451.93 3003.55L1440.77 3022.9L1418.68 3018.27L1418.49 3018.61L1433.53 3035.42L1422.37 3054.77L1422.75 3054.99L1443.05 3045.94L1458.18 3062.88L1458.5 3062.7L1456.1 3040.1L1476.87 3030.89L1476.87 3030.51L1454.64 3025.88L1452.32 3003.78Z" fill="#FFFFFF"/>
<path d="M1140.86 2278.27L1140.79 2278.02L1128.66 2281.28L1121.71 2270.65L1121.5 2270.71L1120.8 2283.38L1108.66 2286.63L1108.73 2286.88L1120.4 2291.35L1119.68 2304.1L1119.88 2304.16L1127.92 2294.22L1139.84 2298.81L1139.99 2298.66L1132.99 2287.98L1140.86 2278.27Z" fill="#FFFFFF"/>
</g>
<defs>
<clipPath id="clip0">
<rect width="1920" height="3414" fill="#FFFFFF"/>
</clipPath>
<clipPath id="clip1">
<rect width="639.298" height="542.992" fill="#FFFFFF" transform="translate(-335 269.649) rotate(-30)"/>
</clipPath>
</defs>
</svg>
